<?xml version="1.0" encoding="UTF-8" standalone="no"?>
<svg
   xmlns:dc="http://purl.org/dc/elements/1.1/"
   xmlns:cc="http://creativecommons.org/ns#"
   xmlns:rdf="http://www.w3.org/1999/02/22-rdf-syntax-ns#"
   xmlns:svg="http://www.w3.org/2000/svg"
   xmlns="http://www.w3.org/2000/svg"
   viewBox="0 0 757.28265 473.30133"
   height="473.30133"
   width="757.28265"
   xml:space="preserve"
   id="svg2"
   version="1.1"><metadata
     id="metadata8"><rdf:RDF><cc:Work
         rdf:about=""><dc:format>image/svg+xml</dc:format><dc:type
           rdf:resource="http://purl.org/dc/dcmitype/StillImage" /></cc:Work></rdf:RDF></metadata><defs
     id="defs6"><clipPath
       id="clipPath18"
       clipPathUnits="userSpaceOnUse"><path
         id="path16"
         d="M 0,354.976 H 567.962 V 0 H 0 Z" /></clipPath></defs><g
     transform="matrix(1.3333333,0,0,-1.3333333,0,473.30133)"
     id="g10"><g
       id="g12"><g
         clip-path="url(#clipPath18)"
         id="g14"><g
           transform="translate(101.1196,169.6312)"
           id="g20"><path
             id="path22"
             style="fill:#ffffff;fill-opacity:1;fill-rule:nonzero;stroke:none"
             d="m 0,0 c -31.536,0 -57.101,-23.891 -57.101,-53.365 0,-7.008 1.458,-13.696 4.088,-19.825 -6.494,8.211 -10.373,18.541 -10.373,29.775 0,26.726 21.907,48.39 48.928,48.39 8.206,0 15.935,-2.006 22.729,-5.539 C 5.568,-0.197 2.811,0 0,0 m -13.639,16.779 c -34.518,0 -62.502,-27.983 -62.502,-62.502 0,-34.517 27.984,-62.501 62.502,-62.501 34.518,0 62.501,27.984 62.501,62.501 0,34.519 -27.983,62.502 -62.501,62.502" /></g><g
           transform="translate(272.1362,181.349)"
           id="g24"><path
             id="path26"
             style="fill:#ffffff;fill-opacity:1;fill-rule:nonzero;stroke:none"
             d="m 0,0 h 11.032 v -32.449 h 17.489 v -9.72 H 11.032 v -77.669 H 0 v 77.669 h -15.052 v 9.72 H 0 Z" /></g><g
           transform="translate(438.6353,181.349)"
           id="g28"><path
             id="path30"
             style="fill:#ffffff;fill-opacity:1;fill-rule:nonzero;stroke:none"
             d="M 0,0 H 21.286 L 5.051,-119.838 h -20.889 z" /></g><g
           transform="translate(469.604,181.349)"
           id="g32"><path
             id="path34"
             style="fill:#ffffff;fill-opacity:1;fill-rule:nonzero;stroke:none"
             d="M 0,0 H 70.768 L 68.246,-21.346 H 44.083 L 31.064,-119.838 H 9.456 l 13.021,98.492 H -2.677 Z" /></g><g
           transform="translate(15.4028,260.163)"
           id="g36"><path
             id="path38"
             style="fill:#ffffff;fill-opacity:1;fill-rule:nonzero;stroke:none"
             d="M 0,0 V -22.394 C 143.926,-59.665 329.389,-52.203 537.156,13.178 V 28.044 C 328.372,-35.52 142.728,-40.347 0,0" /></g><g
           transform="translate(552.5591,311.5565)"
           id="g40"><path
             id="path42"
             style="fill:#ffffff;fill-opacity:1;fill-rule:nonzero;stroke:none"
             d="M 0,0 V 14.962 C -209.471,-47.418 -395.244,-50.504 -537.156,-8.106 V -30.698 C -394,-69.958 -208.422,-64.205 0,0" /></g><g
           transform="translate(369.2886,107.1088)"
           id="g44"><path
             id="path46"
             style="fill:#ffffff;fill-opacity:1;fill-rule:nonzero;stroke:none"
             d="m 0,0 47.124,41.589 h -16.2 L -8.826,6.402 V 74.239 H -19.855 V -45.598 h 11.029 v 39.256 l 43.181,-39.256 h 15.527 z" /></g><g
           transform="translate(320.8257,162.8969)"
           id="g48"><path
             id="path50"
             style="fill:#ffffff;fill-opacity:1;fill-rule:nonzero;stroke:none"
             d="m 0,0 c 2.511,0 4.655,0.894 6.434,2.686 1.778,1.788 2.668,3.923 2.668,6.398 0,2.531 -0.89,4.69 -2.668,6.481 -1.779,1.79 -3.923,2.686 -6.434,2.686 -2.458,0 -4.577,-0.896 -6.355,-2.686 -1.779,-1.791 -2.668,-3.95 -2.668,-6.481 0,-2.475 0.889,-4.61 2.668,-6.398 C -4.577,0.894 -2.458,0 0,0" /></g><path
           id="path52"
           style="fill:#ffffff;fill-opacity:1;fill-rule:nonzero;stroke:none"
           d="M 326.382,148.829 H 315.35 V 61.511 h 11.032 z" /><g
           transform="translate(235.687,86.9437)"
           id="g54"><path
             id="path56"
             style="fill:#ffffff;fill-opacity:1;fill-rule:nonzero;stroke:none"
             d="m 0,0 c -3.092,-5.509 -7.245,-9.799 -12.462,-12.869 -5.216,-3.07 -10.784,-4.604 -16.706,-4.604 -6.029,0 -11.753,1.52 -17.179,4.564 -5.425,3.044 -9.591,7.163 -12.5,12.359 -2.91,5.195 -4.364,11.047 -4.364,17.553 0,9.918 3.262,18.207 9.788,24.874 6.526,6.661 14.558,9.997 24.098,9.997 6.131,0 11.793,-1.51 16.981,-4.525 5.189,-3.021 9.317,-7.26 12.383,-12.715 3.066,-5.457 4.6,-11.23 4.6,-17.316 C 4.639,11.282 3.092,5.51 0,0 m 2.838,49.353 c -8.659,8.771 -19.077,13.159 -31.252,13.159 -6.981,0 -13.305,-1.496 -18.973,-4.493 -5.668,-2.993 -10.679,-7.486 -15.036,-13.475 V 62.088 H -73.455 V -56.797 h 11.032 v 46.099 c 4.618,-5.622 9.788,-9.849 15.508,-12.686 5.721,-2.837 11.992,-4.256 18.816,-4.256 12.123,0 22.474,4.4 31.056,13.2 8.581,8.799 12.872,19.502 12.872,32.111 0,12.346 -4.331,22.907 -12.991,31.682" /></g></g></g></g></svg>